<?xml version="1.0" standalone="no"?>
<!DOCTYPE svg PUBLIC "-//W3C//DTD SVG 20010904//EN"
 "http://www.w3.org/TR/2001/REC-SVG-20010904/DTD/svg10.dtd">
<svg version="1.0" xmlns="http://www.w3.org/2000/svg"
 width="1280.000000pt" height="955.000000pt" viewBox="0 0 1280.000000 955.000000"
 preserveAspectRatio="xMidYMid meet">
<metadata>
Created by potrace 1.15, written by Peter Selinger 2001-2017
</metadata>
<g transform="translate(0.000000,955.000000) scale(0.100000,-0.100000)"
fill="#000000" stroke="none">
<path d="M2900 8747 l0 -803 -57 -18 c-807 -251 -1533 -763 -2025 -1426 -441
-595 -703 -1259 -795 -2020 -24 -202 -24 -647 0 -855 81 -680 305 -1293 680
-1855 382 -574 917 -1039 1552 -1350 876 -429 1818 -531 2740 -295 1160 297
2106 1061 2625 2120 490 1001 560 2088 202 3135 -302 882 -883 1616 -1672
2112 -242 152 -616 327 -897 419 l-103 33 -2 801 -3 800 -357 3 -358 2 -2
-574 -3 -575 -367 572 -366 572 -396 3 -396 2 0 -803z m889 -389 c83 -130 151
-239 151 -242 0 -8 -58 -15 -192 -21 l-128 -6 0 263 c0 146 4 258 9 253 4 -6
76 -117 160 -247z m270 -431 c6 -8 76 -115 155 -238 l143 -224 394 0 394 0 3
148 c1 88 6 147 12 147 17 0 256 -89 368 -136 1009 -432 1769 -1252 2132
-2301 276 -799 286 -1653 28 -2453 -208 -646 -567 -1217 -1047 -1664 -536
-499 -1234 -846 -1961 -975 -307 -54 -730 -72 -1015 -42 -1170 122 -2206 745
-2840 1706 -500 758 -728 1689 -629 2575 123 1105 704 2109 1585 2738 297 212
670 404 1018 523 47 16 88 29 93 29 4 0 9 -66 10 -147 l3 -148 358 -3 357 -2
0 225 c0 171 3 227 13 230 11 4 257 20 368 24 28 0 51 -4 58 -12z"/>
<path d="M3944 7645 c-40 -23 -52 -45 -267 -477 -123 -249 -778 -1560 -1453
-2913 -1185 -2371 -1229 -2462 -1229 -2515 0 -88 52 -140 141 -140 43 0 182
68 1461 710 778 390 1418 710 1424 710 5 0 648 -318 1427 -706 786 -392 1433
-708 1454 -711 49 -7 119 33 142 81 32 68 26 88 -138 409 -84 166 -737 1468
-1451 2892 -714 1425 -1309 2605 -1323 2624 -47 63 -120 77 -188 36z"/>
</g>
</svg>
